<svg height="512pt" preserveAspectRatio="xMidYMid meet" viewBox="0 0 512 512" width="512pt" xmlns="http://www.w3.org/2000/svg"><g transform="matrix(.1 0 0 -.1 0 512)"><path d="m529 4583c-169-168-313-319-320-334-24-59 15-135 71-139 67-6 71-3 287 212l213 212v-592c0-638 0-635 51-663 28-14 81-14 109 1 49 26 50 37 50 667v588l213-213c206-206 215-213 254-214 50 0 79 14 98 52 19 36 19 63 1 98-8 15-151 163-318 330l-304 302h-49-49z"/><path d="m2198 4572-318-317v-46c0-72 54-115 128-101 18 3 93 70 240 215l212 211v-606-606l31-31c42-43 98-43 140-2l29 29v609 608l208-208c210-210 238-231 295-220 32 6 73 46 79 76 11 56-9 80-325 395l-313 312h-44-45z"/><path d="m3874 4578c-270-271-313-318-319-350-14-75 56-138 130-117 19 6 101 80 237 216l208 208v-588c0-631 0-635 51-671 46-32 124-11 147 39 9 19 12 181 12 623v597l208-208c136-136 217-210 237-215 71-20 135 28 135 102 0 40-5 45-318 358l-318 318h-49-49z"/><path d="m565 2589c-140-15-282-54-440-122-59-25-86-43-103-68-28-41-25-89 9-125 40-42 74-40 203 11 201 79 248 89 436 89 191-1 241-12 480-111 200-83 403-150 505-168 131-23 327-21 468 5 166 30 296 71 490 154 237 102 364 131 541 124 157-7 235-28 494-132 114-46 244-95 288-109 305-96 641-74 1003 65 126 49 147 61 167 101 33 63-15 147-84 147-20 0-81-18-136-39-268-105-496-141-699-110-113 17-232 53-409 125-292 118-382 145-547 164-188 22-397-16-641-116-306-127-462-170-646-180-201-12-318 14-657 148-126 49-270 100-321 113-85 22-260 47-303 44-10-1-54-5-98-10z"/><path d="m455 1650c-108-21-249-67-350-114-55-26-78-42-90-66-30-58 1-131 62-146 31-8 61 0 192 51 168 65 230 78 391 79 179 1 251-15 483-110 389-158 501-187 727-187 245 0 442 49 800 197 204 84 276 100 450 100 180 1 233-12 525-129 363-144 465-169 685-168 171 1 328 28 510 89 187 62 241 90 263 136 21 42 15 76-18 112-36 39-71 43-140 16-286-109-400-135-605-135-218 0-267 12-615 150-288 115-371 136-560 142-217 8-363-24-621-133-256-109-417-152-600-161-214-10-355 21-659 147-126 52-226 89-290 107-168 46-379 56-540 23z"/><path d="m570 740c-95-9-195-32-307-70-145-48-221-87-244-123-37-60-3-140 66-153 24-4 61 6 149 41 201 79 248 89 436 89 194-1 237-11 505-121 337-138 482-174 703-174 234 0 444 50 735 175 237 102 362 131 541 124 156-6 230-26 496-133 117-47 247-96 290-109 241-76 515-76 799 0 111 30 295 99 333 126 54 37 57 111 6 166-31 32-76 28-192-17-278-109-504-142-716-106-128 21-205 46-440 140-240 96-348 128-499 145-189 22-396-15-640-116-305-126-461-169-652-180-192-12-333 20-648 146-108 43-226 87-264 99-147 45-325 65-457 51z"/></g></svg>